<svg shape-rendering="crispEdges" height="400" width="400" viewBox="0 0 29 29" id="canvas">
  <path fill="#FFFFFF" d="M0,0 h29v29H0z"></path>
  <path fill="#000000" d="M0 0h7v1H0zM8 0h1v1H8zM10 0h5v1H10zM17 0h1v1H17zM20 0h1v1H20zM22,0 h7v1H22zM0 1h1v1H0zM6 1h1v1H6zM8 1h3v1H8zM13 1h1v1H13zM15 1h1v1H15zM20 1h1v1H20zM22 1h1v1H22zM28,1 h1v1H28zM0 2h1v1H0zM2 2h3v1H2zM6 2h1v1H6zM10 2h1v1H10zM15 2h1v1H15zM17 2h1v1H17zM22 2h1v1H22zM24 2h3v1H24zM28,2 h1v1H28zM0 3h1v1H0zM2 3h3v1H2zM6 3h1v1H6zM8 3h1v1H8zM11 3h1v1H11zM14 3h3v1H14zM18 3h2v1H18zM22 3h1v1H22zM24 3h3v1H24zM28,3 h1v1H28zM0 4h1v1H0zM2 4h3v1H2zM6 4h1v1H6zM8 4h5v1H8zM17 4h2v1H17zM22 4h1v1H22zM24 4h3v1H24zM28,4 h1v1H28zM0 5h1v1H0zM6 5h1v1H6zM8 5h1v1H8zM14 5h6v1H14zM22 5h1v1H22zM28,5 h1v1H28zM0 6h7v1H0zM8 6h1v1H8zM10 6h1v1H10zM12 6h1v1H12zM14 6h1v1H14zM16 6h1v1H16zM18 6h1v1H18zM20 6h1v1H20zM22,6 h7v1H22zM9 7h1v1H9zM15 7h1v1H15zM20 7h1v1H20zM3 8h1v1H3zM6 8h1v1H6zM12 8h1v1H12zM14 8h2v1H14zM17 8h1v1H17zM23 8h3v1H23zM27,8 h2v1H27zM2 9h2v1H2zM9 9h1v1H9zM12 9h1v1H12zM14 9h1v1H14zM16 9h2v1H16zM19 9h2v1H19zM22 9h2v1H22zM26 9h1v1H26zM28,9 h1v1H28zM1 10h3v1H1zM5 10h3v1H5zM10 10h3v1H10zM14 10h3v1H14zM18 10h1v1H18zM20 10h1v1H20zM22 10h1v1H22zM24 10h2v1H24zM27 10h1v1H27zM0 11h1v1H0zM7 11h1v1H7zM21 11h3v1H21zM26 11h2v1H26zM2 12h3v1H2zM6 12h3v1H6zM18 12h3v1H18zM22 12h2v1H22zM25 12h1v1H25zM2 13h1v1H2zM5 13h1v1H5zM19 13h3v1H19zM23 13h1v1H23zM25 13h1v1H25zM27 13h1v1H27zM1 14h3v1H1zM5 14h4v1H5zM22 14h1v1H22zM28,14 h1v1H28zM5 15h1v1H5zM8 15h1v1H8zM10 15h1v1H10zM18 15h1v1H18zM22 15h2v1H22zM27,15 h2v1H27zM0 16h1v1H0zM2 16h1v1H2zM4 16h1v1H4zM6 16h5v1H6zM18 16h1v1H18zM23 16h1v1H23zM27,16 h2v1H27zM1 17h5v1H1zM7 17h1v1H7zM9 17h1v1H9zM18 17h4v1H18zM23 17h1v1H23zM26,17 h3v1H26zM0 18h1v1H0zM6 18h1v1H6zM8 18h3v1H8zM13 18h3v1H13zM17 18h2v1H17zM21 18h1v1H21zM23 18h1v1H23zM26,18 h3v1H26zM3 19h3v1H3zM10 19h1v1H10zM12 19h1v1H12zM16 19h1v1H16zM24 19h2v1H24zM0 20h1v1H0zM3 20h1v1H3zM5 20h2v1H5zM8 20h2v1H8zM11 20h1v1H11zM13 20h3v1H13zM18 20h1v1H18zM20 20h5v1H20zM26 20h1v1H26zM28,20 h1v1H28zM8 21h3v1H8zM12 21h1v1H12zM16 21h3v1H16zM20 21h1v1H20zM24 21h1v1H24zM27,21 h2v1H27zM0 22h7v1H0zM14 22h1v1H14zM16 22h1v1H16zM18 22h1v1H18zM20 22h1v1H20zM22 22h1v1H22zM24 22h4v1H24zM0 23h1v1H0zM6 23h1v1H6zM9 23h1v1H9zM12 23h3v1H12zM16 23h1v1H16zM20 23h1v1H20zM24 23h1v1H24zM26 23h1v1H26zM0 24h1v1H0zM2 24h3v1H2zM6 24h1v1H6zM12 24h4v1H12zM20 24h6v1H20zM28,24 h1v1H28zM0 25h1v1H0zM2 25h3v1H2zM6 25h1v1H6zM8 25h2v1H8zM12 25h1v1H12zM15 25h1v1H15zM17 25h1v1H17zM19 25h4v1H19zM24 25h1v1H24zM26 25h1v1H26zM28,25 h1v1H28zM0 26h1v1H0zM2 26h3v1H2zM6 26h1v1H6zM9 26h1v1H9zM15 26h1v1H15zM18 26h3v1H18zM24 26h3v1H24zM28,26 h1v1H28zM0 27h1v1H0zM6 27h1v1H6zM10 27h1v1H10zM14 27h2v1H14zM17 27h1v1H17zM19 27h1v1H19zM22 27h2v1H22zM25 27h1v1H25zM27 27h1v1H27zM0 28h7v1H0zM10 28h1v1H10zM12 28h2v1H12zM16 28h2v1H16zM22 28h1v1H22zM24 28h2v1H24zM27 28h1v1H27z"></path>
  <image xlink:href="https://emojipedia-us.s3.dualstack.us-west-1.amazonaws.com/thumbs/240/google/241/panda_1f43c.png" height="5.4375" width="5.4375" x="11.78125" y="11.78125" preserveAspectRatio="none"></image>
</svg>
